<mxfile host="app.diagrams.net" agent="Mozilla/5.0 (Windows NT 10.0; Win64; x64) AppleWebKit/537.36 (KHTML, like Gecko) Chrome/138.0.0.0 Safari/537.36 Edg/138.0.0.0" version="27.2.0">
  <diagram id="C5RBs43oDa-KdzZeNtuy" name="Page-1">
    <mxGraphModel dx="864" dy="452" grid="1" gridSize="10" guides="1" tooltips="1" connect="1" arrows="1" fold="1" page="1" pageScale="1" pageWidth="827" pageHeight="1169" math="0" shadow="0">
      <root>
        <mxCell id="WIyWlLk6GJQsqaUBKTNV-0" />
        <mxCell id="WIyWlLk6GJQsqaUBKTNV-1" parent="WIyWlLk6GJQsqaUBKTNV-0" />
        <mxCell id="1EAtNpMMTY39-ddTfPIR-1" value="Product" style="swimlane;fontStyle=1;align=center;verticalAlign=top;childLayout=stackLayout;horizontal=1;startSize=35.55555555555556;horizontalStack=0;resizeParent=1;resizeParentMax=0;resizeLast=0;collapsible=0;marginBottom=0;" vertex="1" parent="WIyWlLk6GJQsqaUBKTNV-1">
          <mxGeometry x="478" y="852" width="157" height="161.55555555555554" as="geometry" />
        </mxCell>
        <mxCell id="1EAtNpMMTY39-ddTfPIR-2" value="+Name: string" style="text;strokeColor=none;fillColor=none;align=left;verticalAlign=top;spacingLeft=4;spacingRight=4;overflow=hidden;rotatable=0;points=[[0,0.5],[1,0.5]];portConstraint=eastwest;" vertex="1" parent="1EAtNpMMTY39-ddTfPIR-1">
          <mxGeometry y="35.55555555555556" width="157" height="36" as="geometry" />
        </mxCell>
        <mxCell id="1EAtNpMMTY39-ddTfPIR-3" value="+Price: double" style="text;strokeColor=none;fillColor=none;align=left;verticalAlign=top;spacingLeft=4;spacingRight=4;overflow=hidden;rotatable=0;points=[[0,0.5],[1,0.5]];portConstraint=eastwest;" vertex="1" parent="1EAtNpMMTY39-ddTfPIR-1">
          <mxGeometry y="71.55555555555556" width="157" height="36" as="geometry" />
        </mxCell>
        <mxCell id="1EAtNpMMTY39-ddTfPIR-4" value="+Quantity: int" style="text;strokeColor=none;fillColor=none;align=left;verticalAlign=top;spacingLeft=4;spacingRight=4;overflow=hidden;rotatable=0;points=[[0,0.5],[1,0.5]];portConstraint=eastwest;" vertex="1" parent="1EAtNpMMTY39-ddTfPIR-1">
          <mxGeometry y="107.55555555555556" width="157" height="36" as="geometry" />
        </mxCell>
        <mxCell id="1EAtNpMMTY39-ddTfPIR-5" style="line;strokeWidth=1;fillColor=none;align=left;verticalAlign=middle;spacingTop=-1;spacingLeft=3;spacingRight=3;rotatable=0;labelPosition=right;points=[];portConstraint=eastwest;strokeColor=inherit;" vertex="1" parent="1EAtNpMMTY39-ddTfPIR-1">
          <mxGeometry y="143.55555555555554" width="157" height="18" as="geometry" />
        </mxCell>
        <mxCell id="1EAtNpMMTY39-ddTfPIR-6" value="Cheese" style="swimlane;fontStyle=1;align=center;verticalAlign=top;childLayout=stackLayout;horizontal=1;startSize=34.54545454545455;horizontalStack=0;resizeParent=1;resizeParentMax=0;resizeLast=0;collapsible=0;marginBottom=0;" vertex="1" parent="WIyWlLk6GJQsqaUBKTNV-1">
          <mxGeometry x="20" y="1070" width="234" height="182.54545454545456" as="geometry" />
        </mxCell>
        <mxCell id="1EAtNpMMTY39-ddTfPIR-7" style="line;strokeWidth=1;fillColor=none;align=left;verticalAlign=middle;spacingTop=-1;spacingLeft=3;spacingRight=3;rotatable=0;labelPosition=right;points=[];portConstraint=eastwest;strokeColor=inherit;" vertex="1" parent="1EAtNpMMTY39-ddTfPIR-6">
          <mxGeometry y="34.54545454545455" width="234" height="8" as="geometry" />
        </mxCell>
        <mxCell id="1EAtNpMMTY39-ddTfPIR-8" value="+GetExpiryDate(): Date" style="text;strokeColor=none;fillColor=none;align=left;verticalAlign=top;spacingLeft=4;spacingRight=4;overflow=hidden;rotatable=0;points=[[0,0.5],[1,0.5]];portConstraint=eastwest;" vertex="1" parent="1EAtNpMMTY39-ddTfPIR-6">
          <mxGeometry y="42.54545454545455" width="234" height="35" as="geometry" />
        </mxCell>
        <mxCell id="1EAtNpMMTY39-ddTfPIR-9" value="+IsExpired(): bool" style="text;strokeColor=none;fillColor=none;align=left;verticalAlign=top;spacingLeft=4;spacingRight=4;overflow=hidden;rotatable=0;points=[[0,0.5],[1,0.5]];portConstraint=eastwest;" vertex="1" parent="1EAtNpMMTY39-ddTfPIR-6">
          <mxGeometry y="77.54545454545455" width="234" height="35" as="geometry" />
        </mxCell>
        <mxCell id="1EAtNpMMTY39-ddTfPIR-10" value="+GetName(): string" style="text;strokeColor=none;fillColor=none;align=left;verticalAlign=top;spacingLeft=4;spacingRight=4;overflow=hidden;rotatable=0;points=[[0,0.5],[1,0.5]];portConstraint=eastwest;" vertex="1" parent="1EAtNpMMTY39-ddTfPIR-6">
          <mxGeometry y="112.54545454545455" width="234" height="35" as="geometry" />
        </mxCell>
        <mxCell id="1EAtNpMMTY39-ddTfPIR-11" value="+GetWeight(): double" style="text;strokeColor=none;fillColor=none;align=left;verticalAlign=top;spacingLeft=4;spacingRight=4;overflow=hidden;rotatable=0;points=[[0,0.5],[1,0.5]];portConstraint=eastwest;" vertex="1" parent="1EAtNpMMTY39-ddTfPIR-6">
          <mxGeometry y="147.54545454545456" width="234" height="35" as="geometry" />
        </mxCell>
        <mxCell id="1EAtNpMMTY39-ddTfPIR-12" value="Biscuits" style="swimlane;fontStyle=1;align=center;verticalAlign=top;childLayout=stackLayout;horizontal=1;startSize=34.54545454545455;horizontalStack=0;resizeParent=1;resizeParentMax=0;resizeLast=0;collapsible=0;marginBottom=0;" vertex="1" parent="WIyWlLk6GJQsqaUBKTNV-1">
          <mxGeometry x="304" y="1070" width="235" height="182.54545454545456" as="geometry" />
        </mxCell>
        <mxCell id="1EAtNpMMTY39-ddTfPIR-13" style="line;strokeWidth=1;fillColor=none;align=left;verticalAlign=middle;spacingTop=-1;spacingLeft=3;spacingRight=3;rotatable=0;labelPosition=right;points=[];portConstraint=eastwest;strokeColor=inherit;" vertex="1" parent="1EAtNpMMTY39-ddTfPIR-12">
          <mxGeometry y="34.54545454545455" width="235" height="8" as="geometry" />
        </mxCell>
        <mxCell id="1EAtNpMMTY39-ddTfPIR-14" value="+GetExpiryDate(): Date" style="text;strokeColor=none;fillColor=none;align=left;verticalAlign=top;spacingLeft=4;spacingRight=4;overflow=hidden;rotatable=0;points=[[0,0.5],[1,0.5]];portConstraint=eastwest;" vertex="1" parent="1EAtNpMMTY39-ddTfPIR-12">
          <mxGeometry y="42.54545454545455" width="235" height="35" as="geometry" />
        </mxCell>
        <mxCell id="1EAtNpMMTY39-ddTfPIR-15" value="+IsExpired(): bool" style="text;strokeColor=none;fillColor=none;align=left;verticalAlign=top;spacingLeft=4;spacingRight=4;overflow=hidden;rotatable=0;points=[[0,0.5],[1,0.5]];portConstraint=eastwest;" vertex="1" parent="1EAtNpMMTY39-ddTfPIR-12">
          <mxGeometry y="77.54545454545455" width="235" height="35" as="geometry" />
        </mxCell>
        <mxCell id="1EAtNpMMTY39-ddTfPIR-16" value="+GetName(): string" style="text;strokeColor=none;fillColor=none;align=left;verticalAlign=top;spacingLeft=4;spacingRight=4;overflow=hidden;rotatable=0;points=[[0,0.5],[1,0.5]];portConstraint=eastwest;" vertex="1" parent="1EAtNpMMTY39-ddTfPIR-12">
          <mxGeometry y="112.54545454545455" width="235" height="35" as="geometry" />
        </mxCell>
        <mxCell id="1EAtNpMMTY39-ddTfPIR-17" value="+GetWeight(): double" style="text;strokeColor=none;fillColor=none;align=left;verticalAlign=top;spacingLeft=4;spacingRight=4;overflow=hidden;rotatable=0;points=[[0,0.5],[1,0.5]];portConstraint=eastwest;" vertex="1" parent="1EAtNpMMTY39-ddTfPIR-12">
          <mxGeometry y="147.54545454545456" width="235" height="35" as="geometry" />
        </mxCell>
        <mxCell id="1EAtNpMMTY39-ddTfPIR-18" value="TV" style="swimlane;fontStyle=1;align=center;verticalAlign=top;childLayout=stackLayout;horizontal=1;startSize=40.57142857142857;horizontalStack=0;resizeParent=1;resizeParentMax=0;resizeLast=0;collapsible=0;marginBottom=0;" vertex="1" parent="WIyWlLk6GJQsqaUBKTNV-1">
          <mxGeometry x="589" y="1094" width="204" height="130.57142857142856" as="geometry" />
        </mxCell>
        <mxCell id="1EAtNpMMTY39-ddTfPIR-19" style="line;strokeWidth=1;fillColor=none;align=left;verticalAlign=middle;spacingTop=-1;spacingLeft=3;spacingRight=3;rotatable=0;labelPosition=right;points=[];portConstraint=eastwest;strokeColor=inherit;" vertex="1" parent="1EAtNpMMTY39-ddTfPIR-18">
          <mxGeometry y="40.57142857142857" width="204" height="8" as="geometry" />
        </mxCell>
        <mxCell id="1EAtNpMMTY39-ddTfPIR-20" value="+GetName(): string" style="text;strokeColor=none;fillColor=none;align=left;verticalAlign=top;spacingLeft=4;spacingRight=4;overflow=hidden;rotatable=0;points=[[0,0.5],[1,0.5]];portConstraint=eastwest;" vertex="1" parent="1EAtNpMMTY39-ddTfPIR-18">
          <mxGeometry y="48.57142857142857" width="204" height="41" as="geometry" />
        </mxCell>
        <mxCell id="1EAtNpMMTY39-ddTfPIR-21" value="+GetWeight(): double" style="text;strokeColor=none;fillColor=none;align=left;verticalAlign=top;spacingLeft=4;spacingRight=4;overflow=hidden;rotatable=0;points=[[0,0.5],[1,0.5]];portConstraint=eastwest;" vertex="1" parent="1EAtNpMMTY39-ddTfPIR-18">
          <mxGeometry y="89.57142857142857" width="204" height="41" as="geometry" />
        </mxCell>
        <mxCell id="1EAtNpMMTY39-ddTfPIR-22" value="MobileScratchCard" style="swimlane;fontStyle=1;align=center;verticalAlign=top;childLayout=stackLayout;horizontal=1;startSize=38;horizontalStack=0;resizeParent=1;resizeParentMax=0;resizeLast=0;collapsible=0;marginBottom=0;" vertex="1" parent="WIyWlLk6GJQsqaUBKTNV-1">
          <mxGeometry x="843" y="1127" width="163" height="57" as="geometry" />
        </mxCell>
        <mxCell id="1EAtNpMMTY39-ddTfPIR-23" style="line;strokeWidth=1;fillColor=none;align=left;verticalAlign=middle;spacingTop=-1;spacingLeft=3;spacingRight=3;rotatable=0;labelPosition=right;points=[];portConstraint=eastwest;strokeColor=inherit;" vertex="1" parent="1EAtNpMMTY39-ddTfPIR-22">
          <mxGeometry y="38" width="163" height="19" as="geometry" />
        </mxCell>
        <mxCell id="1EAtNpMMTY39-ddTfPIR-24" value="&lt;&lt;interface&gt;&gt;&#xa;IExpirable" style="swimlane;fontStyle=1;align=center;verticalAlign=top;childLayout=stackLayout;horizontal=1;startSize=71;horizontalStack=0;resizeParent=1;resizeParentMax=0;resizeLast=0;collapsible=0;marginBottom=0;" vertex="1" parent="WIyWlLk6GJQsqaUBKTNV-1">
          <mxGeometry x="23" y="1330" width="207" height="126" as="geometry" />
        </mxCell>
        <mxCell id="1EAtNpMMTY39-ddTfPIR-25" style="line;strokeWidth=1;fillColor=none;align=left;verticalAlign=middle;spacingTop=-1;spacingLeft=3;spacingRight=3;rotatable=0;labelPosition=right;points=[];portConstraint=eastwest;strokeColor=inherit;" vertex="1" parent="1EAtNpMMTY39-ddTfPIR-24">
          <mxGeometry y="71" width="207" height="8" as="geometry" />
        </mxCell>
        <mxCell id="1EAtNpMMTY39-ddTfPIR-26" value="+IsExpired(): bool" style="text;strokeColor=none;fillColor=none;align=left;verticalAlign=top;spacingLeft=4;spacingRight=4;overflow=hidden;rotatable=0;points=[[0,0.5],[1,0.5]];portConstraint=eastwest;" vertex="1" parent="1EAtNpMMTY39-ddTfPIR-24">
          <mxGeometry y="79" width="207" height="47" as="geometry" />
        </mxCell>
        <mxCell id="1EAtNpMMTY39-ddTfPIR-27" value="&lt;&lt;interface&gt;&gt;&#xa;IShippable" style="swimlane;fontStyle=1;align=center;verticalAlign=top;childLayout=stackLayout;horizontal=1;startSize=62.25;horizontalStack=0;resizeParent=1;resizeParentMax=0;resizeLast=0;collapsible=0;marginBottom=0;" vertex="1" parent="WIyWlLk6GJQsqaUBKTNV-1">
          <mxGeometry x="554" y="1318" width="235" height="154.25" as="geometry" />
        </mxCell>
        <mxCell id="1EAtNpMMTY39-ddTfPIR-28" style="line;strokeWidth=1;fillColor=none;align=left;verticalAlign=middle;spacingTop=-1;spacingLeft=3;spacingRight=3;rotatable=0;labelPosition=right;points=[];portConstraint=eastwest;strokeColor=inherit;" vertex="1" parent="1EAtNpMMTY39-ddTfPIR-27">
          <mxGeometry y="62.25" width="235" height="8" as="geometry" />
        </mxCell>
        <mxCell id="1EAtNpMMTY39-ddTfPIR-29" value="+GetName(): string" style="text;strokeColor=none;fillColor=none;align=left;verticalAlign=top;spacingLeft=4;spacingRight=4;overflow=hidden;rotatable=0;points=[[0,0.5],[1,0.5]];portConstraint=eastwest;" vertex="1" parent="1EAtNpMMTY39-ddTfPIR-27">
          <mxGeometry y="70.25" width="235" height="42" as="geometry" />
        </mxCell>
        <mxCell id="1EAtNpMMTY39-ddTfPIR-30" value="+GetWeight(): double" style="text;strokeColor=none;fillColor=none;align=left;verticalAlign=top;spacingLeft=4;spacingRight=4;overflow=hidden;rotatable=0;points=[[0,0.5],[1,0.5]];portConstraint=eastwest;" vertex="1" parent="1EAtNpMMTY39-ddTfPIR-27">
          <mxGeometry y="112.25" width="235" height="42" as="geometry" />
        </mxCell>
        <mxCell id="1EAtNpMMTY39-ddTfPIR-31" value="CartItem" style="swimlane;fontStyle=1;align=center;verticalAlign=top;childLayout=stackLayout;horizontal=1;startSize=38.857142857142854;horizontalStack=0;resizeParent=1;resizeParentMax=0;resizeLast=0;collapsible=0;marginBottom=0;" vertex="1" parent="WIyWlLk6GJQsqaUBKTNV-1">
          <mxGeometry x="464" y="658" width="186" height="135.85714285714286" as="geometry" />
        </mxCell>
        <mxCell id="1EAtNpMMTY39-ddTfPIR-32" value="+Product: Product" style="text;strokeColor=none;fillColor=none;align=left;verticalAlign=top;spacingLeft=4;spacingRight=4;overflow=hidden;rotatable=0;points=[[0,0.5],[1,0.5]];portConstraint=eastwest;" vertex="1" parent="1EAtNpMMTY39-ddTfPIR-31">
          <mxGeometry y="38.857142857142854" width="186" height="39" as="geometry" />
        </mxCell>
        <mxCell id="1EAtNpMMTY39-ddTfPIR-33" value="+Quantity: int" style="text;strokeColor=none;fillColor=none;align=left;verticalAlign=top;spacingLeft=4;spacingRight=4;overflow=hidden;rotatable=0;points=[[0,0.5],[1,0.5]];portConstraint=eastwest;" vertex="1" parent="1EAtNpMMTY39-ddTfPIR-31">
          <mxGeometry y="77.85714285714286" width="186" height="39" as="geometry" />
        </mxCell>
        <mxCell id="1EAtNpMMTY39-ddTfPIR-34" style="line;strokeWidth=1;fillColor=none;align=left;verticalAlign=middle;spacingTop=-1;spacingLeft=3;spacingRight=3;rotatable=0;labelPosition=right;points=[];portConstraint=eastwest;strokeColor=inherit;" vertex="1" parent="1EAtNpMMTY39-ddTfPIR-31">
          <mxGeometry y="116.85714285714286" width="186" height="19" as="geometry" />
        </mxCell>
        <mxCell id="1EAtNpMMTY39-ddTfPIR-35" value="Cart" style="swimlane;fontStyle=1;align=center;verticalAlign=top;childLayout=stackLayout;horizontal=1;startSize=33.142857142857146;horizontalStack=0;resizeParent=1;resizeParentMax=0;resizeLast=0;collapsible=0;marginBottom=0;" vertex="1" parent="WIyWlLk6GJQsqaUBKTNV-1">
          <mxGeometry x="384" y="368" width="365" height="239.14285714285714" as="geometry" />
        </mxCell>
        <mxCell id="1EAtNpMMTY39-ddTfPIR-36" value="+Items: List" style="text;strokeColor=none;fillColor=none;align=left;verticalAlign=top;spacingLeft=4;spacingRight=4;overflow=hidden;rotatable=0;points=[[0,0.5],[1,0.5]];portConstraint=eastwest;" vertex="1" parent="1EAtNpMMTY39-ddTfPIR-35">
          <mxGeometry y="33.142857142857146" width="365" height="33" as="geometry" />
        </mxCell>
        <mxCell id="1EAtNpMMTY39-ddTfPIR-37" style="line;strokeWidth=1;fillColor=none;align=left;verticalAlign=middle;spacingTop=-1;spacingLeft=3;spacingRight=3;rotatable=0;labelPosition=right;points=[];portConstraint=eastwest;strokeColor=inherit;" vertex="1" parent="1EAtNpMMTY39-ddTfPIR-35">
          <mxGeometry y="66.14285714285714" width="365" height="8" as="geometry" />
        </mxCell>
        <mxCell id="1EAtNpMMTY39-ddTfPIR-38" value="+Add(product: Product, quantity: int): void" style="text;strokeColor=none;fillColor=none;align=left;verticalAlign=top;spacingLeft=4;spacingRight=4;overflow=hidden;rotatable=0;points=[[0,0.5],[1,0.5]];portConstraint=eastwest;" vertex="1" parent="1EAtNpMMTY39-ddTfPIR-35">
          <mxGeometry y="74.14285714285714" width="365" height="33" as="geometry" />
        </mxCell>
        <mxCell id="1EAtNpMMTY39-ddTfPIR-39" value="+GetShipmentDetails(): List&lt;ShipmentDetail&gt;" style="text;strokeColor=none;fillColor=none;align=left;verticalAlign=top;spacingLeft=4;spacingRight=4;overflow=hidden;rotatable=0;points=[[0,0.5],[1,0.5]];portConstraint=eastwest;fontColor=#000000;" vertex="1" parent="1EAtNpMMTY39-ddTfPIR-35">
          <mxGeometry y="107.14285714285714" width="365" height="33" as="geometry" />
        </mxCell>
        <mxCell id="1EAtNpMMTY39-ddTfPIR-40" value="+HasExpiredItems(): bool" style="text;strokeColor=none;fillColor=none;align=left;verticalAlign=top;spacingLeft=4;spacingRight=4;overflow=hidden;rotatable=0;points=[[0,0.5],[1,0.5]];portConstraint=eastwest;" vertex="1" parent="1EAtNpMMTY39-ddTfPIR-35">
          <mxGeometry y="140.14285714285714" width="365" height="33" as="geometry" />
        </mxCell>
        <mxCell id="1EAtNpMMTY39-ddTfPIR-41" value="+HasOutOfStock(): bool" style="text;strokeColor=none;fillColor=none;align=left;verticalAlign=top;spacingLeft=4;spacingRight=4;overflow=hidden;rotatable=0;points=[[0,0.5],[1,0.5]];portConstraint=eastwest;" vertex="1" parent="1EAtNpMMTY39-ddTfPIR-35">
          <mxGeometry y="173.14285714285714" width="365" height="33" as="geometry" />
        </mxCell>
        <mxCell id="1EAtNpMMTY39-ddTfPIR-42" value="+ReduceStock(): void" style="text;strokeColor=none;fillColor=none;align=left;verticalAlign=top;spacingLeft=4;spacingRight=4;overflow=hidden;rotatable=0;points=[[0,0.5],[1,0.5]];portConstraint=eastwest;" vertex="1" parent="1EAtNpMMTY39-ddTfPIR-35">
          <mxGeometry y="206.14285714285714" width="365" height="33" as="geometry" />
        </mxCell>
        <mxCell id="1EAtNpMMTY39-ddTfPIR-43" value="ShipmentDetail" style="swimlane;fontStyle=1;align=center;verticalAlign=top;childLayout=stackLayout;horizontal=1;startSize=38.857142857142854;horizontalStack=0;resizeParent=1;resizeParentMax=0;resizeLast=0;collapsible=0;marginBottom=0;" vertex="1" parent="WIyWlLk6GJQsqaUBKTNV-1">
          <mxGeometry x="761" y="658" width="198" height="135.85714285714286" as="geometry" />
        </mxCell>
        <mxCell id="1EAtNpMMTY39-ddTfPIR-44" value="+Name: string" style="text;strokeColor=none;fillColor=none;align=left;verticalAlign=top;spacingLeft=4;spacingRight=4;overflow=hidden;rotatable=0;points=[[0,0.5],[1,0.5]];portConstraint=eastwest;" vertex="1" parent="1EAtNpMMTY39-ddTfPIR-43">
          <mxGeometry y="38.857142857142854" width="198" height="39" as="geometry" />
        </mxCell>
        <mxCell id="1EAtNpMMTY39-ddTfPIR-45" value="+Weight: double" style="text;strokeColor=none;fillColor=none;align=left;verticalAlign=top;spacingLeft=4;spacingRight=4;overflow=hidden;rotatable=0;points=[[0,0.5],[1,0.5]];portConstraint=eastwest;" vertex="1" parent="1EAtNpMMTY39-ddTfPIR-43">
          <mxGeometry y="77.85714285714286" width="198" height="39" as="geometry" />
        </mxCell>
        <mxCell id="1EAtNpMMTY39-ddTfPIR-46" style="line;strokeWidth=1;fillColor=none;align=left;verticalAlign=middle;spacingTop=-1;spacingLeft=3;spacingRight=3;rotatable=0;labelPosition=right;points=[];portConstraint=eastwest;strokeColor=inherit;" vertex="1" parent="1EAtNpMMTY39-ddTfPIR-43">
          <mxGeometry y="116.85714285714286" width="198" height="19" as="geometry" />
        </mxCell>
        <mxCell id="1EAtNpMMTY39-ddTfPIR-47" value="Customer" style="swimlane;fontStyle=1;align=center;verticalAlign=top;childLayout=stackLayout;horizontal=1;startSize=38.857142857142854;horizontalStack=0;resizeParent=1;resizeParentMax=0;resizeLast=0;collapsible=0;marginBottom=0;" vertex="1" parent="WIyWlLk6GJQsqaUBKTNV-1">
          <mxGeometry x="429" y="174" width="160" height="135.85714285714286" as="geometry" />
        </mxCell>
        <mxCell id="1EAtNpMMTY39-ddTfPIR-48" value="+Name: string" style="text;strokeColor=none;fillColor=none;align=left;verticalAlign=top;spacingLeft=4;spacingRight=4;overflow=hidden;rotatable=0;points=[[0,0.5],[1,0.5]];portConstraint=eastwest;" vertex="1" parent="1EAtNpMMTY39-ddTfPIR-47">
          <mxGeometry y="38.857142857142854" width="160" height="39" as="geometry" />
        </mxCell>
        <mxCell id="1EAtNpMMTY39-ddTfPIR-49" value="+Cart: Cart" style="text;strokeColor=none;fillColor=none;align=left;verticalAlign=top;spacingLeft=4;spacingRight=4;overflow=hidden;rotatable=0;points=[[0,0.5],[1,0.5]];portConstraint=eastwest;" vertex="1" parent="1EAtNpMMTY39-ddTfPIR-47">
          <mxGeometry y="77.85714285714286" width="160" height="39" as="geometry" />
        </mxCell>
        <mxCell id="1EAtNpMMTY39-ddTfPIR-50" style="line;strokeWidth=1;fillColor=none;align=left;verticalAlign=middle;spacingTop=-1;spacingLeft=3;spacingRight=3;rotatable=0;labelPosition=right;points=[];portConstraint=eastwest;strokeColor=inherit;" vertex="1" parent="1EAtNpMMTY39-ddTfPIR-47">
          <mxGeometry y="116.85714285714286" width="160" height="19" as="geometry" />
        </mxCell>
        <mxCell id="1EAtNpMMTY39-ddTfPIR-51" value="Shop" style="swimlane;fontStyle=1;align=center;verticalAlign=top;childLayout=stackLayout;horizontal=1;startSize=38;horizontalStack=0;resizeParent=1;resizeParentMax=0;resizeLast=0;collapsible=0;marginBottom=0;" vertex="1" parent="WIyWlLk6GJQsqaUBKTNV-1">
          <mxGeometry x="536" y="40" width="60" height="57" as="geometry" />
        </mxCell>
        <mxCell id="1EAtNpMMTY39-ddTfPIR-52" style="line;strokeWidth=1;fillColor=none;align=left;verticalAlign=middle;spacingTop=-1;spacingLeft=3;spacingRight=3;rotatable=0;labelPosition=right;points=[];portConstraint=eastwest;strokeColor=inherit;" vertex="1" parent="1EAtNpMMTY39-ddTfPIR-51">
          <mxGeometry y="38" width="60" height="19" as="geometry" />
        </mxCell>
        <mxCell id="1EAtNpMMTY39-ddTfPIR-53" value="ShippingService" style="swimlane;fontStyle=1;align=center;verticalAlign=top;childLayout=stackLayout;horizontal=1;startSize=38;horizontalStack=0;resizeParent=1;resizeParentMax=0;resizeLast=0;collapsible=0;marginBottom=0;" vertex="1" parent="WIyWlLk6GJQsqaUBKTNV-1">
          <mxGeometry x="799" y="446" width="143" height="57" as="geometry" />
        </mxCell>
        <mxCell id="1EAtNpMMTY39-ddTfPIR-54" style="line;strokeWidth=1;fillColor=none;align=left;verticalAlign=middle;spacingTop=-1;spacingLeft=3;spacingRight=3;rotatable=0;labelPosition=right;points=[];portConstraint=eastwest;strokeColor=inherit;" vertex="1" parent="1EAtNpMMTY39-ddTfPIR-53">
          <mxGeometry y="38" width="143" height="19" as="geometry" />
        </mxCell>
        <mxCell id="1EAtNpMMTY39-ddTfPIR-56" value="" style="curved=0;startArrow=block;startSize=16;startFill=0;endArrow=none;exitX=0;exitY=0.88;entryX=0.5;entryY=0;rounded=0;" edge="1" parent="WIyWlLk6GJQsqaUBKTNV-1" source="1EAtNpMMTY39-ddTfPIR-1" target="1EAtNpMMTY39-ddTfPIR-12">
          <mxGeometry relative="1" as="geometry">
            <Array as="points" />
          </mxGeometry>
        </mxCell>
        <mxCell id="1EAtNpMMTY39-ddTfPIR-89" value="Inherits" style="edgeLabel;html=1;align=center;verticalAlign=middle;resizable=0;points=[];" vertex="1" connectable="0" parent="1EAtNpMMTY39-ddTfPIR-56">
          <mxGeometry x="0.313" y="5" relative="1" as="geometry">
            <mxPoint as="offset" />
          </mxGeometry>
        </mxCell>
        <mxCell id="1EAtNpMMTY39-ddTfPIR-57" value="" style="curved=0;startArrow=block;startSize=16;startFill=0;endArrow=none;exitX=1;exitY=0.88;entryX=0.5;entryY=0;rounded=0;" edge="1" parent="WIyWlLk6GJQsqaUBKTNV-1" source="1EAtNpMMTY39-ddTfPIR-1" target="1EAtNpMMTY39-ddTfPIR-18">
          <mxGeometry relative="1" as="geometry">
            <Array as="points" />
          </mxGeometry>
        </mxCell>
        <mxCell id="1EAtNpMMTY39-ddTfPIR-90" value="Inherits" style="edgeLabel;html=1;align=center;verticalAlign=middle;resizable=0;points=[];" vertex="1" connectable="0" parent="1EAtNpMMTY39-ddTfPIR-57">
          <mxGeometry x="-0.0013" relative="1" as="geometry">
            <mxPoint as="offset" />
          </mxGeometry>
        </mxCell>
        <mxCell id="1EAtNpMMTY39-ddTfPIR-58" value="" style="curved=0;startArrow=block;startSize=16;startFill=0;endArrow=none;exitX=1;exitY=0.64;entryX=0.5;entryY=0;rounded=0;" edge="1" parent="WIyWlLk6GJQsqaUBKTNV-1" source="1EAtNpMMTY39-ddTfPIR-1" target="1EAtNpMMTY39-ddTfPIR-22">
          <mxGeometry relative="1" as="geometry">
            <Array as="points">
              <mxPoint x="925" y="955" />
            </Array>
          </mxGeometry>
        </mxCell>
        <mxCell id="1EAtNpMMTY39-ddTfPIR-91" value="Inherits" style="edgeLabel;html=1;align=center;verticalAlign=middle;resizable=0;points=[];" vertex="1" connectable="0" parent="1EAtNpMMTY39-ddTfPIR-58">
          <mxGeometry x="-0.3203" relative="1" as="geometry">
            <mxPoint as="offset" />
          </mxGeometry>
        </mxCell>
        <mxCell id="1EAtNpMMTY39-ddTfPIR-64" value="" style="curved=1;startArrow=none;endArrow=open;endSize=12;exitX=0.5;exitY=1;entryX=0.5;entryY=0;rounded=0;" edge="1" parent="WIyWlLk6GJQsqaUBKTNV-1" source="1EAtNpMMTY39-ddTfPIR-31" target="1EAtNpMMTY39-ddTfPIR-1">
          <mxGeometry relative="1" as="geometry">
            <Array as="points" />
          </mxGeometry>
        </mxCell>
        <mxCell id="1EAtNpMMTY39-ddTfPIR-92" value="&lt;span style=&quot;font-family: &amp;quot;Segoe WPC&amp;quot;, &amp;quot;Segoe UI&amp;quot;, sans-serif; font-size: 13px; text-align: left; text-wrap-mode: wrap; background-color: rgb(255, 255, 255);&quot;&gt;&lt;font style=&quot;color: rgb(0, 0, 0);&quot;&gt;Association&lt;/font&gt;&lt;/span&gt;" style="edgeLabel;html=1;align=center;verticalAlign=middle;resizable=0;points=[];" vertex="1" connectable="0" parent="1EAtNpMMTY39-ddTfPIR-64">
          <mxGeometry x="-0.134" y="-4" relative="1" as="geometry">
            <mxPoint as="offset" />
          </mxGeometry>
        </mxCell>
        <mxCell id="1EAtNpMMTY39-ddTfPIR-65" value="" style="curved=1;startArrow=none;endArrow=open;endSize=12;exitX=0.48;exitY=1;entryX=0.5;entryY=0;rounded=0;" edge="1" parent="WIyWlLk6GJQsqaUBKTNV-1" source="1EAtNpMMTY39-ddTfPIR-35" target="1EAtNpMMTY39-ddTfPIR-31">
          <mxGeometry relative="1" as="geometry">
            <Array as="points" />
          </mxGeometry>
        </mxCell>
        <mxCell id="1EAtNpMMTY39-ddTfPIR-66" value="" style="curved=0;startArrow=none;endArrow=open;endSize=12;exitX=0.73;exitY=1;entryX=0;entryY=0.16;rounded=0;" edge="1" parent="WIyWlLk6GJQsqaUBKTNV-1" source="1EAtNpMMTY39-ddTfPIR-35" target="1EAtNpMMTY39-ddTfPIR-43">
          <mxGeometry relative="1" as="geometry">
            <Array as="points" />
          </mxGeometry>
        </mxCell>
        <mxCell id="1EAtNpMMTY39-ddTfPIR-67" value="" style="curved=0;startArrow=none;endArrow=open;endSize=12;exitX=0.5;exitY=1;entryX=0.37;entryY=0;rounded=0;" edge="1" parent="WIyWlLk6GJQsqaUBKTNV-1" source="1EAtNpMMTY39-ddTfPIR-47" target="1EAtNpMMTY39-ddTfPIR-35">
          <mxGeometry relative="1" as="geometry">
            <Array as="points" />
          </mxGeometry>
        </mxCell>
        <mxCell id="1EAtNpMMTY39-ddTfPIR-68" value="" style="curved=0;dashed=1;startArrow=none;endArrow=open;endSize=12;exitX=1.01;exitY=0.92;entryX=0.63;entryY=0;rounded=0;" edge="1" parent="WIyWlLk6GJQsqaUBKTNV-1" source="1EAtNpMMTY39-ddTfPIR-51" target="1EAtNpMMTY39-ddTfPIR-35">
          <mxGeometry relative="1" as="geometry">
            <Array as="points" />
          </mxGeometry>
        </mxCell>
        <mxCell id="1EAtNpMMTY39-ddTfPIR-95" value="Depends" style="edgeLabel;html=1;align=center;verticalAlign=middle;resizable=0;points=[];" vertex="1" connectable="0" parent="1EAtNpMMTY39-ddTfPIR-68">
          <mxGeometry x="-0.6809" relative="1" as="geometry">
            <mxPoint as="offset" />
          </mxGeometry>
        </mxCell>
        <mxCell id="1EAtNpMMTY39-ddTfPIR-69" value="" style="curved=0;dashed=1;startArrow=none;endArrow=open;endSize=12;exitX=0.01;exitY=0.92;entryX=0.5;entryY=0;rounded=0;" edge="1" parent="WIyWlLk6GJQsqaUBKTNV-1" source="1EAtNpMMTY39-ddTfPIR-51" target="1EAtNpMMTY39-ddTfPIR-47">
          <mxGeometry relative="1" as="geometry">
            <Array as="points" />
          </mxGeometry>
        </mxCell>
        <mxCell id="1EAtNpMMTY39-ddTfPIR-96" value="Depends" style="edgeLabel;html=1;align=center;verticalAlign=middle;resizable=0;points=[];" vertex="1" connectable="0" parent="1EAtNpMMTY39-ddTfPIR-69">
          <mxGeometry x="-0.2953" y="-2" relative="1" as="geometry">
            <mxPoint as="offset" />
          </mxGeometry>
        </mxCell>
        <mxCell id="1EAtNpMMTY39-ddTfPIR-70" value="" style="curved=1;dashed=1;startArrow=none;endArrow=open;endSize=12;exitX=0.5;exitY=1;entryX=0.54;entryY=0;rounded=0;" edge="1" parent="WIyWlLk6GJQsqaUBKTNV-1" source="1EAtNpMMTY39-ddTfPIR-53" target="1EAtNpMMTY39-ddTfPIR-43">
          <mxGeometry relative="1" as="geometry">
            <Array as="points">
              <mxPoint x="871" y="633" />
            </Array>
          </mxGeometry>
        </mxCell>
        <mxCell id="1EAtNpMMTY39-ddTfPIR-93" value="Depends" style="edgeLabel;html=1;align=center;verticalAlign=middle;resizable=0;points=[];" vertex="1" connectable="0" parent="1EAtNpMMTY39-ddTfPIR-70">
          <mxGeometry x="-0.0722" y="-2" relative="1" as="geometry">
            <mxPoint as="offset" />
          </mxGeometry>
        </mxCell>
        <mxCell id="1EAtNpMMTY39-ddTfPIR-71" value="" style="endArrow=block;dashed=1;endFill=0;endSize=12;html=1;rounded=0;exitX=0.15;exitY=1.042;exitDx=0;exitDy=0;exitPerimeter=0;entryX=0.155;entryY=-0.024;entryDx=0;entryDy=0;entryPerimeter=0;" edge="1" parent="WIyWlLk6GJQsqaUBKTNV-1" source="1EAtNpMMTY39-ddTfPIR-11" target="1EAtNpMMTY39-ddTfPIR-24">
          <mxGeometry width="160" relative="1" as="geometry">
            <mxPoint x="90" y="1290" as="sourcePoint" />
            <mxPoint x="250" y="1290" as="targetPoint" />
          </mxGeometry>
        </mxCell>
        <mxCell id="1EAtNpMMTY39-ddTfPIR-87" value="Implements" style="edgeLabel;html=1;align=center;verticalAlign=middle;resizable=0;points=[];" vertex="1" connectable="0" parent="1EAtNpMMTY39-ddTfPIR-71">
          <mxGeometry x="-0.3425" relative="1" as="geometry">
            <mxPoint as="offset" />
          </mxGeometry>
        </mxCell>
        <mxCell id="1EAtNpMMTY39-ddTfPIR-72" value="" style="endArrow=block;dashed=1;endFill=0;endSize=12;html=1;rounded=0;exitX=0.128;exitY=1.099;exitDx=0;exitDy=0;entryX=0.75;entryY=0;entryDx=0;entryDy=0;exitPerimeter=0;" edge="1" parent="WIyWlLk6GJQsqaUBKTNV-1" source="1EAtNpMMTY39-ddTfPIR-17" target="1EAtNpMMTY39-ddTfPIR-24">
          <mxGeometry width="160" relative="1" as="geometry">
            <mxPoint x="130" y="1310" as="sourcePoint" />
            <mxPoint x="130" y="1383" as="targetPoint" />
            <Array as="points">
              <mxPoint x="334" y="1290" />
              <mxPoint x="178" y="1290" />
            </Array>
          </mxGeometry>
        </mxCell>
        <mxCell id="1EAtNpMMTY39-ddTfPIR-84" value="Implements" style="edgeLabel;html=1;align=center;verticalAlign=middle;resizable=0;points=[];" vertex="1" connectable="0" parent="1EAtNpMMTY39-ddTfPIR-72">
          <mxGeometry x="-0.0957" y="3" relative="1" as="geometry">
            <mxPoint as="offset" />
          </mxGeometry>
        </mxCell>
        <mxCell id="1EAtNpMMTY39-ddTfPIR-75" value="" style="endArrow=block;dashed=1;endFill=0;endSize=12;html=1;rounded=0;exitX=0.812;exitY=1.213;exitDx=0;exitDy=0;exitPerimeter=0;entryX=0;entryY=0.5;entryDx=0;entryDy=0;" edge="1" parent="WIyWlLk6GJQsqaUBKTNV-1" source="1EAtNpMMTY39-ddTfPIR-11" target="1EAtNpMMTY39-ddTfPIR-29">
          <mxGeometry width="160" relative="1" as="geometry">
            <mxPoint x="410" y="1330" as="sourcePoint" />
            <mxPoint x="410" y="1403" as="targetPoint" />
            <Array as="points">
              <mxPoint x="210" y="1310" />
              <mxPoint x="330" y="1350" />
            </Array>
          </mxGeometry>
        </mxCell>
        <mxCell id="1EAtNpMMTY39-ddTfPIR-83" value="Implements" style="edgeLabel;html=1;align=center;verticalAlign=middle;resizable=0;points=[];" vertex="1" connectable="0" parent="1EAtNpMMTY39-ddTfPIR-75">
          <mxGeometry x="0.1787" y="-4" relative="1" as="geometry">
            <mxPoint as="offset" />
          </mxGeometry>
        </mxCell>
        <mxCell id="1EAtNpMMTY39-ddTfPIR-76" value="" style="endArrow=block;dashed=1;endFill=0;endSize=12;html=1;rounded=0;exitX=0.472;exitY=1.013;exitDx=0;exitDy=0;exitPerimeter=0;entryX=0;entryY=0.25;entryDx=0;entryDy=0;" edge="1" parent="WIyWlLk6GJQsqaUBKTNV-1" source="1EAtNpMMTY39-ddTfPIR-17" target="1EAtNpMMTY39-ddTfPIR-27">
          <mxGeometry width="160" relative="1" as="geometry">
            <mxPoint x="410" y="1320" as="sourcePoint" />
            <mxPoint x="410" y="1393" as="targetPoint" />
            <Array as="points">
              <mxPoint x="415" y="1320" />
            </Array>
          </mxGeometry>
        </mxCell>
        <mxCell id="1EAtNpMMTY39-ddTfPIR-85" value="Implements" style="edgeLabel;html=1;align=center;verticalAlign=middle;resizable=0;points=[];" vertex="1" connectable="0" parent="1EAtNpMMTY39-ddTfPIR-76">
          <mxGeometry x="0.333" y="4" relative="1" as="geometry">
            <mxPoint as="offset" />
          </mxGeometry>
        </mxCell>
        <mxCell id="1EAtNpMMTY39-ddTfPIR-77" value="" style="endArrow=block;dashed=1;endFill=0;endSize=12;html=1;rounded=0;exitX=0.456;exitY=0.986;exitDx=0;exitDy=0;exitPerimeter=0;" edge="1" parent="WIyWlLk6GJQsqaUBKTNV-1" source="1EAtNpMMTY39-ddTfPIR-21">
          <mxGeometry width="160" relative="1" as="geometry">
            <mxPoint x="680" y="1260" as="sourcePoint" />
            <mxPoint x="682" y="1320" as="targetPoint" />
          </mxGeometry>
        </mxCell>
        <mxCell id="1EAtNpMMTY39-ddTfPIR-86" value="Implements" style="edgeLabel;html=1;align=center;verticalAlign=middle;resizable=0;points=[];" vertex="1" connectable="0" parent="1EAtNpMMTY39-ddTfPIR-77">
          <mxGeometry x="-0.25" y="4" relative="1" as="geometry">
            <mxPoint as="offset" />
          </mxGeometry>
        </mxCell>
        <mxCell id="1EAtNpMMTY39-ddTfPIR-82" value="" style="curved=0;startArrow=block;startSize=16;startFill=0;endArrow=none;exitX=0;exitY=0.5;entryX=0.5;entryY=0;rounded=0;exitDx=0;exitDy=0;entryDx=0;entryDy=0;" edge="1" parent="WIyWlLk6GJQsqaUBKTNV-1" source="1EAtNpMMTY39-ddTfPIR-4" target="1EAtNpMMTY39-ddTfPIR-6">
          <mxGeometry relative="1" as="geometry">
            <Array as="points">
              <mxPoint x="137" y="978" />
            </Array>
            <mxPoint x="276" y="920" as="sourcePoint" />
            <mxPoint x="220" y="996" as="targetPoint" />
          </mxGeometry>
        </mxCell>
        <mxCell id="1EAtNpMMTY39-ddTfPIR-88" value="Inherits" style="edgeLabel;html=1;align=center;verticalAlign=middle;resizable=0;points=[];" vertex="1" connectable="0" parent="1EAtNpMMTY39-ddTfPIR-82">
          <mxGeometry x="-0.1594" y="-1" relative="1" as="geometry">
            <mxPoint as="offset" />
          </mxGeometry>
        </mxCell>
        <mxCell id="1EAtNpMMTY39-ddTfPIR-99" value="&lt;span style=&quot;font-family: &amp;quot;Segoe WPC&amp;quot;, &amp;quot;Segoe UI&amp;quot;, sans-serif; font-size: 13px; text-align: left; text-wrap-mode: wrap; background-color: rgb(255, 255, 255);&quot;&gt;&lt;font style=&quot;color: rgb(0, 0, 0);&quot;&gt;Association&lt;/font&gt;&lt;/span&gt;" style="edgeLabel;html=1;align=center;verticalAlign=middle;resizable=0;points=[];" vertex="1" connectable="0" parent="WIyWlLk6GJQsqaUBKTNV-1">
          <mxGeometry x="560" y="620" as="geometry" />
        </mxCell>
        <mxCell id="1EAtNpMMTY39-ddTfPIR-100" value="&lt;span style=&quot;font-family: &amp;quot;Segoe WPC&amp;quot;, &amp;quot;Segoe UI&amp;quot;, sans-serif; font-size: 13px; text-align: left; text-wrap-mode: wrap; background-color: rgb(255, 255, 255);&quot;&gt;&lt;font style=&quot;color: rgb(0, 0, 0);&quot;&gt;Association&lt;/font&gt;&lt;/span&gt;" style="edgeLabel;html=1;align=center;verticalAlign=middle;resizable=0;points=[];" vertex="1" connectable="0" parent="WIyWlLk6GJQsqaUBKTNV-1">
          <mxGeometry x="680" y="630" as="geometry" />
        </mxCell>
        <mxCell id="1EAtNpMMTY39-ddTfPIR-101" value="&lt;span style=&quot;font-family: &amp;quot;Segoe WPC&amp;quot;, &amp;quot;Segoe UI&amp;quot;, sans-serif; font-size: 13px; text-align: left; text-wrap-mode: wrap; background-color: rgb(255, 255, 255);&quot;&gt;&lt;font style=&quot;color: rgb(0, 0, 0);&quot;&gt;Association&lt;/font&gt;&lt;/span&gt;" style="edgeLabel;html=1;align=center;verticalAlign=middle;resizable=0;points=[];" vertex="1" connectable="0" parent="WIyWlLk6GJQsqaUBKTNV-1">
          <mxGeometry x="510" y="330" as="geometry" />
        </mxCell>
      </root>
    </mxGraphModel>
  </diagram>
</mxfile>
